<svg width="151" height="34" viewBox="0 0 151 34" fill="none" xmlns="http://www.w3.org/2000/svg">
<path d="M5.77105 26.2587H0.813477V0.00012207H5.77105V26.2587Z" fill="white"/>
<path d="M20.2093 26.2587C19.9823 25.8146 19.817 25.2618 19.7133 24.6005C18.5165 25.933 16.9619 26.6017 15.047 26.6017C13.2357 26.6017 11.7329 26.0786 10.5434 25.0298C9.35155 23.9811 8.75684 22.6584 8.75684 21.0643C8.75684 19.1049 9.48234 17.5997 10.9358 16.5509C12.3893 15.5021 14.4893 14.9716 17.2358 14.9617H19.5085V13.9006C19.5085 13.0468 19.2889 12.3608 18.8496 11.85C18.4104 11.3367 17.7194 11.08 16.7719 11.08C15.9403 11.08 15.2863 11.2799 14.815 11.6797C14.3412 12.0795 14.1068 12.6248 14.1068 13.3207H9.16647C9.16647 12.2497 9.49715 11.2577 10.1585 10.3471C10.8198 9.43657 11.7551 8.72095 12.9618 8.20273C14.1685 7.68452 15.5257 7.42542 17.031 7.42542C19.3111 7.42542 21.1199 7.99792 22.4599 9.14292C23.7998 10.2879 24.4686 11.8993 24.4686 13.9722V21.9897C24.4809 23.7442 24.7252 25.0718 25.2039 25.9725V26.2637H20.2118L20.2093 26.2587ZM16.1229 22.8237C16.8508 22.8237 17.5245 22.6609 18.139 22.3376C18.7534 22.0119 19.2099 21.5776 19.506 21.0297V17.8489H17.6602C15.1876 17.8489 13.8699 18.7027 13.7119 20.4128L13.6947 20.704C13.6947 21.3184 13.9118 21.8268 14.3437 22.2266C14.778 22.6263 15.3702 22.8262 16.1229 22.8262V22.8237Z" fill="white"/>
<path d="M44.5801 17.1827C44.5801 20.1464 43.9483 22.4561 42.6824 24.1144C41.4165 25.7727 39.6496 26.6018 37.3818 26.6018C35.3756 26.6018 33.7741 25.8319 32.5773 24.2945L32.3552 26.2613H27.9109V0.000244141H32.8512V9.41937C33.9912 8.08683 35.4891 7.41809 37.3473 7.41809C39.6027 7.41809 41.3721 8.24723 42.6553 9.90551C43.9385 11.5638 44.5776 13.8982 44.5776 16.9063V17.1802L44.5801 17.1827ZM39.6398 16.8249C39.6398 14.9568 39.3436 13.5922 38.7514 12.731C38.1592 11.8698 37.2757 11.4404 36.1011 11.4404C34.5292 11.4404 33.4459 12.0845 32.8536 13.3726V20.672C33.4582 21.97 34.5514 22.6215 36.1357 22.6215C37.7199 22.6215 38.7785 21.8343 39.282 20.2624C39.5213 19.5097 39.6398 18.3647 39.6398 16.8249V16.8249Z" fill="white"/>
<path d="M78.554 14.4375H76.0654C76.0199 14.1155 75.9271 13.8295 75.787 13.5795C75.6468 13.3258 75.4669 13.1098 75.2472 12.9318C75.0275 12.7538 74.7737 12.6174 74.4859 12.5227C74.2018 12.428 73.8931 12.3807 73.5597 12.3807C72.9574 12.3807 72.4328 12.5303 71.9859 12.8295C71.5389 13.125 71.1923 13.5568 70.9461 14.125C70.6999 14.6894 70.5768 15.375 70.5768 16.1818C70.5768 17.0114 70.6999 17.7083 70.9461 18.2727C71.1961 18.8371 71.5446 19.2633 71.9915 19.5511C72.4385 19.839 72.9556 19.983 73.5427 19.983C73.8722 19.983 74.1771 19.9394 74.4574 19.8523C74.7415 19.7652 74.9934 19.6383 75.2131 19.4716C75.4328 19.3011 75.6146 19.0947 75.7586 18.8523C75.9063 18.6098 76.0086 18.3333 76.0654 18.0227L78.554 18.0341C78.4896 18.5682 78.3287 19.0833 78.0711 19.5795C77.8173 20.072 77.4745 20.5133 77.0427 20.9034C76.6146 21.2898 76.1033 21.5966 75.5086 21.8239C74.9177 22.0473 74.2491 22.1591 73.5029 22.1591C72.465 22.1591 71.537 21.9242 70.7188 21.4545C69.9044 20.9848 69.2605 20.3049 68.787 19.4148C68.3173 18.5246 68.0824 17.447 68.0824 16.1818C68.0824 14.9129 68.3211 13.8333 68.7984 12.9432C69.2756 12.053 69.9234 11.375 70.7415 10.9091C71.5597 10.4394 72.4802 10.2045 73.5029 10.2045C74.1771 10.2045 74.8021 10.2992 75.3779 10.4886C75.9574 10.678 76.4707 10.9545 76.9177 11.3182C77.3646 11.678 77.7283 12.1193 78.0086 12.642C78.2927 13.1648 78.4745 13.7633 78.554 14.4375ZM92.0514 16.1818C92.0514 17.4508 91.8109 18.5303 91.3298 19.4205C90.8526 20.3106 90.201 20.9905 89.3753 21.4602C88.5533 21.9261 87.6291 22.1591 86.6026 22.1591C85.5685 22.1591 84.6404 21.9242 83.8185 21.4545C82.9965 20.9848 82.3469 20.3049 81.8696 19.4148C81.3923 18.5246 81.1537 17.447 81.1537 16.1818C81.1537 14.9129 81.3923 13.8333 81.8696 12.9432C82.3469 12.053 82.9965 11.375 83.8185 10.9091C84.6404 10.4394 85.5685 10.2045 86.6026 10.2045C87.6291 10.2045 88.5533 10.4394 89.3753 10.9091C90.201 11.375 90.8526 12.053 91.3298 12.9432C91.8109 13.8333 92.0514 14.9129 92.0514 16.1818ZM89.5571 16.1818C89.5571 15.3598 89.434 14.6667 89.1878 14.1023C88.9454 13.5379 88.6026 13.1098 88.1594 12.8182C87.7162 12.5265 87.1973 12.3807 86.6026 12.3807C86.0079 12.3807 85.4889 12.5265 85.0457 12.8182C84.6026 13.1098 84.2579 13.5379 84.0116 14.1023C83.7692 14.6667 83.648 15.3598 83.648 16.1818C83.648 17.0038 83.7692 17.697 84.0116 18.2614C84.2579 18.8258 84.6026 19.2538 85.0457 19.5455C85.4889 19.8371 86.0079 19.983 86.6026 19.983C87.1973 19.983 87.7162 19.8371 88.1594 19.5455C88.6026 19.2538 88.9454 18.8258 89.1878 18.2614C89.434 17.697 89.5571 17.0038 89.5571 16.1818ZM102.101 10.3636H104.562V17.9205C104.562 18.7689 104.359 19.5114 103.954 20.1477C103.552 20.7841 102.99 21.2803 102.266 21.6364C101.543 21.9886 100.7 22.1648 99.7377 22.1648C98.7718 22.1648 97.9271 21.9886 97.2036 21.6364C96.4802 21.2803 95.9177 20.7841 95.5161 20.1477C95.1146 19.5114 94.9139 18.7689 94.9139 17.9205V10.3636H97.3741V17.7102C97.3741 18.1534 97.4707 18.5473 97.6639 18.892C97.8608 19.2367 98.1374 19.5076 98.4934 19.7045C98.8495 19.9015 99.2642 20 99.7377 20C100.215 20 100.63 19.9015 100.982 19.7045C101.338 19.5076 101.613 19.2367 101.806 18.892C102.003 18.5473 102.101 18.1534 102.101 17.7102V10.3636ZM107.626 22V10.3636H112.217C113.095 10.3636 113.845 10.5208 114.467 10.8352C115.092 11.1458 115.567 11.5871 115.893 12.1591C116.222 12.7273 116.387 13.3958 116.387 14.1648C116.387 14.9375 116.22 15.6023 115.887 16.1591C115.554 16.7121 115.071 17.1364 114.438 17.4318C113.809 17.7273 113.048 17.875 112.154 17.875H109.08V15.8977H111.756C112.226 15.8977 112.616 15.8333 112.927 15.7045C113.237 15.5758 113.469 15.3826 113.62 15.125C113.775 14.8674 113.853 14.5473 113.853 14.1648C113.853 13.7784 113.775 13.4527 113.62 13.1875C113.469 12.9223 113.236 12.7216 112.921 12.5852C112.611 12.4451 112.219 12.375 111.745 12.375H110.086V22H107.626ZM113.91 16.7045L116.802 22H114.086L111.256 16.7045H113.91ZM125.478 13.7102C125.433 13.2519 125.238 12.8958 124.893 12.642C124.548 12.3883 124.081 12.2614 123.49 12.2614C123.088 12.2614 122.749 12.3182 122.473 12.4318C122.196 12.5417 121.984 12.6951 121.836 12.892C121.692 13.089 121.62 13.3125 121.62 13.5625C121.613 13.7708 121.656 13.9527 121.751 14.108C121.849 14.2633 121.984 14.3977 122.154 14.5114C122.325 14.6212 122.522 14.7178 122.745 14.8011C122.969 14.8807 123.207 14.9489 123.461 15.0057L124.507 15.2557C125.014 15.3693 125.48 15.5208 125.904 15.7102C126.329 15.8996 126.696 16.1326 127.007 16.4091C127.317 16.6856 127.558 17.0114 127.728 17.3864C127.902 17.7614 127.991 18.1913 127.995 18.6761C127.991 19.3883 127.81 20.0057 127.45 20.5284C127.094 21.0473 126.579 21.4508 125.904 21.7386C125.234 22.0227 124.425 22.1648 123.478 22.1648C122.539 22.1648 121.721 22.0208 121.024 21.733C120.331 21.4451 119.789 21.0189 119.399 20.4545C119.012 19.8864 118.81 19.1837 118.791 18.3466H121.171C121.198 18.7367 121.31 19.0625 121.507 19.3239C121.707 19.5814 121.974 19.7765 122.308 19.9091C122.645 20.0379 123.026 20.1023 123.45 20.1023C123.866 20.1023 124.228 20.0417 124.535 19.9205C124.846 19.7992 125.086 19.6307 125.257 19.4148C125.427 19.1989 125.512 18.9508 125.512 18.6705C125.512 18.4091 125.435 18.1894 125.279 18.0114C125.128 17.8333 124.904 17.6818 124.609 17.5568C124.317 17.4318 123.959 17.3182 123.535 17.2159L122.268 16.8977C121.287 16.6591 120.512 16.286 119.944 15.7784C119.376 15.2708 119.094 14.5871 119.098 13.7273C119.094 13.0227 119.281 12.4072 119.66 11.8807C120.043 11.3542 120.567 10.9432 121.234 10.6477C121.901 10.3523 122.658 10.2045 123.507 10.2045C124.37 10.2045 125.124 10.3523 125.768 10.6477C126.416 10.9432 126.92 11.3542 127.279 11.8807C127.639 12.4072 127.825 13.017 127.836 13.7102H125.478ZM130.69 22V10.3636H138.531V12.392H133.15V15.1648H138.128V17.1932H133.15V19.9716H138.554V22H130.69ZM147.839 13.7102C147.794 13.2519 147.599 12.8958 147.254 12.642C146.91 12.3883 146.442 12.2614 145.851 12.2614C145.449 12.2614 145.11 12.3182 144.834 12.4318C144.557 12.5417 144.345 12.6951 144.197 12.892C144.054 13.089 143.982 13.3125 143.982 13.5625C143.974 13.7708 144.018 13.9527 144.112 14.108C144.211 14.2633 144.345 14.3977 144.516 14.5114C144.686 14.6212 144.883 14.7178 145.107 14.8011C145.33 14.8807 145.569 14.9489 145.822 15.0057L146.868 15.2557C147.375 15.3693 147.841 15.5208 148.266 15.7102C148.69 15.8996 149.057 16.1326 149.368 16.4091C149.679 16.6856 149.919 17.0114 150.089 17.3864C150.264 17.7614 150.353 18.1913 150.357 18.6761C150.353 19.3883 150.171 20.0057 149.811 20.5284C149.455 21.0473 148.94 21.4508 148.266 21.7386C147.595 22.0227 146.786 22.1648 145.839 22.1648C144.9 22.1648 144.082 22.0208 143.385 21.733C142.692 21.4451 142.15 21.0189 141.76 20.4545C141.374 19.8864 141.171 19.1837 141.152 18.3466H143.533C143.559 18.7367 143.671 19.0625 143.868 19.3239C144.069 19.5814 144.336 19.7765 144.669 19.9091C145.006 20.0379 145.387 20.1023 145.811 20.1023C146.228 20.1023 146.589 20.0417 146.896 19.9205C147.207 19.7992 147.447 19.6307 147.618 19.4148C147.788 19.1989 147.874 18.9508 147.874 18.6705C147.874 18.4091 147.796 18.1894 147.641 18.0114C147.489 17.8333 147.266 17.6818 146.97 17.5568C146.679 17.4318 146.321 17.3182 145.896 17.2159L144.629 16.8977C143.648 16.6591 142.874 16.286 142.305 15.7784C141.737 15.2708 141.455 14.5871 141.459 13.7273C141.455 13.0227 141.643 12.4072 142.021 11.8807C142.404 11.3542 142.929 10.9432 143.595 10.6477C144.262 10.3523 145.019 10.2045 145.868 10.2045C146.732 10.2045 147.485 10.3523 148.129 10.6477C148.777 10.9432 149.281 11.3542 149.641 11.8807C150 12.4072 150.186 13.017 150.197 13.7102H147.839Z" fill="#C4C4CC"/>
<path d="M58.2711 33.1459H53.3135V0.570068H58.2711V33.1459Z" fill="#00B37E"/>
</svg>
